<svg width="45" height="45" viewBox="0 0 45 45" fill="none" xmlns="http://www.w3.org/2000/svg">
<path d="M22.5001 2.26772C26.5014 2.26772 30.4128 3.45421 33.7399 5.67722C37.0669 7.90024 39.6597 11.0598 41.191 14.7566C42.7222 18.4532 43.1227 22.5209 42.3422 26.4454C41.5616 30.3698 39.6348 33.9746 36.8056 36.8039C33.9763 39.6333 30.3715 41.5601 26.4471 42.3408C22.5226 43.1205 18.4549 42.7213 14.7581 41.1894C11.0615 39.6582 7.90175 37.0652 5.6789 33.7382C3.45588 30.4113 2.26924 26.4997 2.26924 22.4984C2.27562 17.1348 4.40906 11.9929 8.20165 8.20013C11.9942 4.40754 17.1365 2.27395 22.5001 2.26772ZM22.5001 0C18.0499 0 13.6997 1.31981 9.99958 3.79226C6.29929 6.26455 3.41549 9.77864 1.71257 13.8901C0.0096594 18.0015 -0.435879 22.5256 0.432505 26.8902C1.30073 31.2549 3.4439 35.264 6.59071 38.4107C9.73752 41.5573 13.7468 43.7002 18.1116 44.5673C22.4763 45.436 27.0003 44.9905 31.1116 43.2866C35.2229 41.5837 38.7369 38.6997 41.209 34.9994C43.6811 31.299 45.0003 26.9486 45 22.4984C44.9997 16.5314 42.6289 10.8089 38.4093 6.58967C34.1899 2.3704 28.4672 0 22.5001 0Z" fill="white"/>
<path d="M28.0525 17.2256C28.0525 18.3234 27.7269 19.3967 27.1169 20.3096C26.5071 21.2224 25.64 21.9336 24.6258 22.3538C23.6114 22.7739 22.4955 22.8839 21.4188 22.6698C20.342 22.4557 19.3529 21.9269 18.5766 21.1507C17.8004 20.3744 17.2717 19.3853 17.0575 18.3086C16.8434 17.2318 16.9534 16.1157 17.3736 15.1014C17.7937 14.087 18.5049 13.2203 19.4177 12.6104C20.3307 12.0004 21.4038 11.6748 22.5016 11.6748C23.9738 11.6748 25.3857 12.2596 26.4267 13.3006C27.4677 14.3416 28.0525 15.7534 28.0525 17.2256Z" fill="white"/>
<path d="M33.0475 33.3239C33.0475 30.5267 31.9366 27.8442 29.9587 25.8664C27.9808 23.8885 25.298 22.7773 22.5009 22.7773C19.7038 22.7773 17.0214 23.8885 15.0435 25.8664C13.0656 27.8442 11.9543 30.5267 11.9543 33.3239H33.0475Z" fill="white"/>
</svg>
